<?xml version="1.0" encoding="UTF-8"?><svg xmlns="http://www.w3.org/2000/svg" xmlns:xlink="http://www.w3.org/1999/xlink" viewBox="0 0 841.89 286.41"><defs><style>.j{fill:url(#h);}</style><radialGradient id="h" cx="361.52" cy="162.91" fx="361.52" fy="162.91" r="97.56" gradientTransform="matrix(1, 0, 0, 1, 0, 0)" gradientUnits="userSpaceOnUse"><stop offset="0" stop-color="#add100"/><stop offset=".65" stop-color="#89a407"/><stop offset="1" stop-color="#7b920a"/></radialGradient></defs><g id="a"><g id="b"/></g><g id="c"/><g id="d"/><g id="e"><g id="f"><g id="g"><path d="M553.01,66.57c-6.94-10.42-16.08-17.68-30.91-17.68-16.72,0-29.33,9.79-42.26,23.68-.32-4.74-.32-15.78-.32-23.99-2.74,.83-6.02,1.57-9.58,2.23,.66,22.34-3.19,47.58-11.9,71.72-.99,2.75-2.04,5.4-3.12,8.01v45.91c0,1.3,0,2.58,0,3.84,7.59-.34,13.85,1.13,17.77,4.11-4.96,3.89-11.11,7.34-17.86,9.89-.31,27.34-1.27,42.67-1.8,51.62-.32,6-3.15,7.58-17.03,8.52l-1.26,3.79c7.88-.63,17.35-1.58,32.48-1.58s25.55,.63,31.54,.63l.95-3.79c-16.08-.95-18.92-1.58-19.55-9.79-1.26-17.68-.95-38.52-.63-62.51,4.73,4.1,14.82,8.52,25.23,8.52,40.05,0,58.66-31.57,58.66-77.35,0-18.63-4.1-35.36-10.41-45.78Zm-48.57,118.71h-.32c-8.2,0-17.03-5.68-21.45-13.89-1.89-3.16-2.84-6-2.84-9.47-.32-23.99-.32-36.31,0-72.3,0-4.74,.95-7.58,2.52-10.73,5.68-12,15.77-18.94,26.18-18.94,9.78,0,15.77,5.37,19.87,13.89,5.05,9.79,7.89,26.84,7.89,43.25,0,28.41-5.05,68.19-31.85,68.19Z"/><path d="M742.93,92.82c-.94-20.77-11.01-39.02-28.95-39.02-12.59,0-21.08,7.87-21.08,22.97,0,7.87,3.15,13.85,9.76,18.88,7.87,5.35,25.8,15.73,34.93,21.4,11.33,7.55,16.68,17.62,16.68,29.9,0,27.37-20.14,42.48-46.26,42.48-12.59,0-26.12-4.09-33.67-7.87,0-5.98,.31-28-.31-40.59l3.46-1.26c.31,5.98,1.57,14.47,4.72,23.28,5.03,14.16,16.99,21.4,29.58,21.4,16.05,0,23.6-8.81,23.29-23.91,0-6.61-2.83-13.22-9.75-17.94-7.55-5.66-21.4-14.79-29.58-19.82-12.9-7.87-19.82-18.25-19.82-33.67,0-22.66,15.73-39.65,40.59-39.65,9.75,0,20.77,3.77,24.86,8.18l2.83-10.38,3.15,1.26c-1.89,16.36-1.57,32.09-.94,43.11l-3.46,1.26Z"/><path d="M674.78,151.96c3.28-9.69,5.32-21.91,5.32-34.28,0-1.69-.05-3.37-.13-5.05-5.16-6.31-7.85-13.97-7.85-23.58,0-2.86,.25-5.62,.74-8.28-8.27-18.38-23.87-31.37-48.14-31.37h-.31c-32.11,0-50.21,21.61-56.23,49.19,.51,4.46,.79,9.11,.79,13.9,0,8.46-.64,16.43-1.94,23.81,4.36,29.3,21.5,53.44,55.49,53.44,22.36,0,38.67-10.51,48.11-28.29,1.24-2.43,4.16-9.49,4.16-9.49Zm-28.35,16.38c-5.03,12.59-12.27,16.99-21.71,16.99-10.07,0-18.25-5.98-23.29-17.31-4.72-11.33-7.55-31.15-7.55-51.29s2.52-37.45,7.24-47.51c5.03-9.44,11.33-15.42,21.4-15.42h.31c11.33,0,17.94,6.92,22.34,17.31,4.4,10.07,7.24,27.69,7.24,48.77s-2.52,38.7-5.98,48.46Z"/><path class="j" d="M431.94,183.78c-8.89,2.4-17.09,6.47-23.51,11.26-.76-3.18-1.88-6.26-3.35-9.11,16.39-10.47,32.26-32.29,43-62.01,9.23-25.57,13.01-52.4,11.74-75.68-20.01,6.45-40.77,30.99-53.86,67.26-6.96,19.28-10.82,39.26-11.75,57.91-5.26-3.58-11.37-5.24-17.7-5.24-23.6,0-38.7,.94-56.96,.94-7.87,0-15.1-5.03-15.1-12.9s4.72-15.1,12.27-18.25c5.35,5.03,15.73,9.75,30.21,9.75,23.28,0,45.63-16.05,45.63-49.4,0-12.59-4.09-26.75-13.53-37.44,2.83-1.26,6.29-1.89,10.07-1.89,5.35,0,10.38,2.2,12.9,5.04,3.15-.94,7.87-5.98,8.5-10.38,0-2.83-4.09-7.55-11.01-7.55s-13.85,5.03-23.28,12.27c-3.46-2.52-12.27-7.55-26.75-7.55-23.28,0-46.26,15.73-46.26,50.35,0,12.27,3.46,24.86,10.38,33.04-8.81,6.61-18.57,17.31-18.57,31.15,0,7.87,2.83,14.16,7.24,18.88,6.61,7.24,15.1,10.07,26.75,10.38,6.5,.2,16.81,.14,27.78,.16-20.84,3.56-50.53,8.6-53.74,11.17-5.98,4.41-10.23,14.47-10.23,22.97,0,21.08,17.62,34.61,47.83,34.61,33.04,0,68.91-20.45,68.91-59.47,0-2.42-.26-4.86-.72-7.27,6.28,3.72,16.96,4.42,29.29,1.09,9.4-2.53,18.04-6.93,24.61-12.08-6-4.55-17.45-5.61-30.78-2.01ZM347.55,55.52h.31c16.99,0,19.19,26.12,19.19,44.68,0,22.34-3.78,43.11-19.19,43.11s-19.82-22.66-19.82-44.37c0-26.12,5.98-43.42,19.51-43.42Zm1.26,201.07c-22.34,0-40.28-12.27-40.28-31.78,0-8.5,26.48-12.37,46.72-17.13,15.74-3.7,25.83-9.07,28.86-10.17,6.12,3.52,10.32,10.33,10.32,18.8,0,22.34-13.53,40.28-45.63,40.28Z"/><g><path d="M28.65,115.33c0-18.16-.64-30.91-.96-40.15-.32-4.46-2.23-5.42-15.93-4.78l.64-3.51c12.11,0,28.68-1.28,40.15-4.46,.96,5.42,1.59,18.48,1.59,22.94,9.88-10.51,24.85-24.21,43.65-24.21,13.38,0,20.07,5.42,23.9,10.83,2.87,3.82,3.82,8.6,5.1,12.43,8.92-8.92,22.62-23.26,43.34-23.26,15.61,0,23.58,8.28,27.4,15.29,2.55,5.42,3.51,11.47,3.51,17.21v94c0,7.01,2.23,7.33,16.89,8.6l-.96,3.82c-7.33,0-18.16-.96-30.59-.96s-21.35,.96-26.13,.96l.32-3.82c10.52-.32,13.38-1.91,13.7-7.65,.64-7.33,1.59-21.35,1.59-50.66,0-44.93,0-47.8-1.59-52.26-2.55-7.65-8.28-13.06-18.16-13.06-13.38,0-21.99,8.92-26.45,17.53-1.59,3.82-2.23,7.65-2.23,13.06v55.76c0,12.11,.32,22.3,.96,29.63,.32,5.73,2.55,7.01,15.3,7.65l-.96,3.82c-5.1,0-18.48-.96-29.32-.96s-21.03,.96-26.77,.96v-3.82c11.47-.96,14.34-1.59,14.66-8.92,.64-9.56,.96-21.67,.96-41.74v-31.23c0-21.99-.32-25.17-1.91-29.63-2.55-7.65-7.65-12.11-17.21-12.11-11.79,0-20.71,8.29-26.13,18.48-2.55,4.46-3.19,8.92-3.19,14.34v53.53c0,12.11,.32,21.35,.96,29,.64,6.37,2.87,7.33,15.3,8.29l-.96,3.82c-6.06,0-19.44-.96-29.32-.96s-21.03,.96-27.4,.96v-3.82c11.79-.64,14.66-1.59,15.3-9.56,.64-8.92,.96-21.03,.96-41.11v-30.27Z"/><path d="M285.15,60.89c-7.01,0-15.93-.95-21.03-.95l-.96,3.51,8.28,.95c8.28,.96,10.83,2.55,8.92,11.15-4.14,20.07-15.61,62.77-23.58,88.58-6.37-21.03-22.62-66.6-29.95-92.73-1.27-5.1-.96-6.05,4.46-6.69l7.65-1.27-.96-3.51c-5.74,.32-17.21,.95-28.36,.95-7.13,0-14.24-.33-20.3-.63,5.89,3.06,9.62,7.64,11.88,11.79,2.55,5.42,3.51,11.47,3.51,17.21v.25c8.79,24.35,22.94,67.21,32.95,97.25,1.59,5.42,4.46,11.15,7.01,13.38-4.46,14.98-14.34,55.76-23.9,55.76-3.51,0-5.42-2.87-7.01-8.6-.96-2.87-3.51-5.1-7.65-5.1-6.05,0-11.47,5.73-11.47,13.06,0,7.97,5.42,15.93,16.25,15.93,16.57,0,23.58-14.98,34.73-52.9,11.79-39.51,32.82-110.57,41.74-137.65,5.42-14.66,7.65-16.57,19.76-17.21l.64-3.51c-6.05,0-15.3,.95-22.62,.95Z"/></g><path d="M826.35,58.61l-1.26,4.25-35,1.82c-.32,10.32-.95,27.01-.95,51.3,0,33.69,.32,47.05,1.26,55.24,1.26,7.89,6.31,11.54,12.93,11.54,12.3,0,20.18-10.62,23.02-26.11h1.58l2.21,6.68c-5.68,16.69-18.92,26.41-36.26,26.41-11.04,0-18.6-3.04-22.7-8.2-3.15-3.95-4.73-8.8-4.73-17.61,0-25.19,1.26-72.24,1.26-99.26l-18.92-1.82,1.26-4.25h17.97V27.65c9.46-3.95,17.97-9.11,22.07-12.44l1.58,.3c-.32,7.28-1.26,28.84-1.26,43.1h35.95Z"/></g></g><g id="i"/></g></svg>